<?xml version="1.0" encoding="utf-8"?>
<!-- Generator: Adobe Illustrator 21.1.0, SVG Export Plug-In . SVG Version: 6.00 Build 0)  -->
<svg version="1.1" id="Layer_1" xmlns="http://www.w3.org/2000/svg" xmlns:xlink="http://www.w3.org/1999/xlink" x="0px" y="0px"
	 viewBox="0 0 588.1 265.6" style="enable-background:new 0 0 588.1 265.6;" xml:space="preserve">
<style type="text/css">
	.st0{fill:#00CC44;}
</style>
<g>
	<path class="st0" d="M130,149.5l-18.3-18.3l90.8-90.8c4.1-4.1,10.9-4.1,15,0L241,63.8l-85.7,85.7C148.3,156.5,137,156.5,130,149.5z
		"/>
	<path class="st0" d="M226.5,109.4c-5.4-0.1-9.7,3-12.1,4.9c-8.7,7.1-35,33.2-69.6,69.6c-0.7,0.6-3.5,2.8-7.7,2.8
		c-3.9,0-6.6-2-7.4-2.6c-1.9-1.8-43.5-42.6-45.8-45.9c-1-1.4-1-2.8-1-2.8c0.1-1.6,1.1-2.6,1.3-2.8c28.7-28.7,57.3-57.3,86-86
		c-6.9-6.9-13.7-13.7-20.6-20.6c-1.1-0.9-4.6-3.4-9.6-3.4c-2.5,0-6.5,0.6-11.7,4.8c-7.9,6.5-45.5,43.9-96,96c-0.6,0.6-3.8,4-3.7,9.1
		c0.1,3.5,1.6,5.9,2.3,6.9c31.5,31.5,62.9,62.9,94.4,94.4c1.1,1.1,6,5.5,13.6,5.8c8.5,0.3,14-4.9,15-5.9
		c33.9-33.9,67.8-67.8,101.6-101.6c-5.9-5.9-11.8-11.8-17.7-17.7C237.3,113.7,233.2,109.5,226.5,109.4z"/>
	<circle class="st0" cx="264.6" cy="91.1" r="25"/>
	<path class="st0" d="M210.7,235.3l-15.2-15.2l88-88c4.6-4.6,12.1-4.6,16.8,0l22.6,22.6l-80.6,80.6C233.6,244,219.5,244,210.7,235.3
		z"/>
	<path class="st0" d="M300.7,102.9V67.8c0-4.8,3.9-8.8,8.8-8.8h167.2c7.5,0,13.6,6.1,13.6,13.6v30.2H300.7z"/>
	
		<rect x="329.5" y="72.4" transform="matrix(-0.7071 0.7071 -0.7071 -0.7071 686.367 -39.8695)" class="st0" width="43.8" height="99.7"/>
	<path class="st0" d="M310.2,238.9l-19.7-19.7l94.6-94.6l25.3,25.3c3.1,3.1,3.1,8.2,0,11.3l-77.7,77.7
		C326.5,245.1,316.4,245.1,310.2,238.9z"/>
	<path class="st0" d="M419.5,140.1l15-15c8.8-8.8,23.2-8.8,32,0l92.7,92.7l-23.9,23.9c-3.9,3.9-10.2,3.9-14.2,0L419.5,140.1z"/>
</g>
</svg>
